<svg xmlns="http://www.w3.org/2000/svg" width="937.78" height="784.206" viewBox="0 0 937.78 784.206">
  <g id="Group_114" data-name="Group 114" transform="translate(-12257.22 -5638)">
    <g id="Group_113" data-name="Group 113">
      <rect id="Rectangle_37" data-name="Rectangle 37" width="80.801" height="30.092" transform="translate(12974.328 5689.267)" fill="#ffc107" opacity="0.3"/>
      <rect id="Rectangle_38" data-name="Rectangle 38" width="80.801" height="30.092" transform="translate(13108.626 5638)" fill="#ffc107" opacity="0.3"/>
      <rect id="Rectangle_39" data-name="Rectangle 39" width="80.801" height="30.092" transform="translate(13114.198 5731.061)" fill="#ffc107" opacity="0.3"/>
      <rect id="Rectangle_40" data-name="Rectangle 40" width="80.801" height="30.092" transform="translate(12855.634 5765.611)" fill="#ffc107" opacity="0.3"/>
      <rect id="Rectangle_41" data-name="Rectangle 41" width="80.801" height="30.092" transform="translate(12830 5889.321)" fill="#ffc107" opacity="0.3"/>
      <rect id="Rectangle_42" data-name="Rectangle 42" width="80.801" height="30.092" transform="translate(12952.038 5886.534)" fill="#ffc107" opacity="0.3"/>
      <path id="Path_35" data-name="Path 35" d="M823.626,14.856l-53.5,50.76L829.2,108.107" transform="translate(12285 5638)" fill="none" stroke="#3f3d56" stroke-miterlimit="10" stroke-width="1"/>
      <line id="Line_17" data-name="Line 17" x1="78.294" y2="61.995" transform="translate(12896.034 5703.616)" fill="none" stroke="#3f3d56" stroke-miterlimit="10" stroke-width="1"/>
      <path id="Path_36" data-name="Path 36" d="M585.4,251.3l25.633-93.6,96.405,90.832" transform="translate(12285 5638)" fill="none" stroke="#3f3d56" stroke-miterlimit="10" stroke-width="1"/>
      <rect id="Rectangle_43" data-name="Rectangle 43" width="80.801" height="30.092" transform="translate(12429.328 5720.267)" fill="#ffc107" opacity="0.3"/>
      <rect id="Rectangle_44" data-name="Rectangle 44" width="80.801" height="30.092" transform="translate(12563.626 5669)" fill="#ffc107" opacity="0.3"/>
      <rect id="Rectangle_45" data-name="Rectangle 45" width="80.801" height="30.092" transform="translate(12569.198 5762.061)" fill="#ffc107" opacity="0.3"/>
      <rect id="Rectangle_46" data-name="Rectangle 46" width="80.801" height="30.092" transform="translate(12310.634 5796.611)" fill="#ffc107" opacity="0.3"/>
      <rect id="Rectangle_47" data-name="Rectangle 47" width="80.801" height="30.092" transform="translate(12285 5920.321)" fill="#ffc107" opacity="0.3"/>
      <rect id="Rectangle_48" data-name="Rectangle 48" width="80.801" height="30.092" transform="translate(12407.038 5917.534)" fill="#ffc107" opacity="0.3"/>
      <path id="Path_37" data-name="Path 37" d="M278.626,45.856l-53.5,50.76L284.2,139.107" transform="translate(12285 5638)" fill="none" stroke="#3f3d56" stroke-miterlimit="10" stroke-width="1"/>
      <line id="Line_18" data-name="Line 18" x1="78.294" y2="61.995" transform="translate(12351.034 5734.616)" fill="none" stroke="#3f3d56" stroke-miterlimit="10" stroke-width="1"/>
      <path id="Path_38" data-name="Path 38" d="M40.4,282.3l25.633-93.6,96.4,90.832" transform="translate(12285 5638)" fill="none" stroke="#3f3d56" stroke-miterlimit="10" stroke-width="1"/>
      <line id="Line_19" data-name="Line 19" x2="91.634" transform="translate(12650 5777.107)" fill="none" stroke="#3f3d56" stroke-miterlimit="10" stroke-width="1"/>
      <rect id="Rectangle_49" data-name="Rectangle 49" width="95" height="30" transform="translate(12700.5 5761.706)" fill="#ffc107"/>
      <line id="Line_20" data-name="Line 20" x2="60.011" transform="translate(12795.623 5776.706)" fill="none" stroke="#3f3d56" stroke-miterlimit="10" stroke-width="1"/>
      <line id="Line_21" data-name="Line 21" x1="55.618" y1="92.85" transform="translate(12644.427 5683.856)" fill="none" stroke="#3f3d56" stroke-miterlimit="10" stroke-width="1"/>
      <g id="Group_112" data-name="Group 112" transform="translate(-278.78 -28)">
        <ellipse id="Ellipse_14" data-name="Ellipse 14" cx="456.89" cy="98" rx="456.89" ry="98" transform="translate(12536 6254.206)" fill="#f2f2f2"/>
        <path id="Path_39" data-name="Path 39" d="M838.809,391.611l42.906,214.971H891l1.022-1.588,2.959-4.6L857.829,399.572l-5.64-2.362Z" transform="translate(11942.885 5638)" fill="#47465a"/>
        <path id="Path_40" data-name="Path 40" d="M838.809,397.21l39.836,207.784,2.959-4.6L844.449,399.572Z" transform="translate(11956.649 5638)" opacity="0.1"/>
        <path id="Path_41" data-name="Path 41" d="M881.6,684.432l11.031,3.556,2.681.867,3.539-7.962L959.564,403.96l-6.312-1.415-13.261-2.973Z" transform="translate(11833.053 5638)" fill="#47465a"/>
        <path id="Path_42" data-name="Path 42" d="M881.6,687.988l2.681.867,3.539-7.962L948.533,403.96l-6.312-1.415Z" transform="translate(11844.444 5638)" opacity="0.1"/>
        <path id="Path_43" data-name="Path 43" d="M408.865,391.611,418.6,670.277l11.152,2.477.791.177,3.1-5.75-6.193-272.917-5.958-.849Z" transform="translate(12852.044 5638)" fill="#47465a"/>
        <path id="Path_44" data-name="Path 44" d="M408.865,393.415l8.263,279.339.791.177,3.1-5.75-6.193-272.917Z" transform="translate(12870.899 5638)" opacity="0.1"/>
        <path id="Path_45" data-name="Path 45" d="M419.039,768.917l11.536,1.99,1.292.221,3.538-7.519,56.176-364.037-1.619-.491-8.555-2.6Z" transform="translate(12783.13 5638)" fill="#47465a"/>
        <path id="Path_46" data-name="Path 46" d="M419.039,770.907l1.292.221,3.538-7.519,56.176-364.037-1.619-.491Z" transform="translate(12794.766 5638)" opacity="0.1"/>
        <path id="Path_47" data-name="Path 47" d="M1014.411,412.949,971.46,467.831a13.928,13.928,0,0,1-12.588,5.249l-176.318-20.65A13.928,13.928,0,0,1,770.246,438.6V397.91Z" transform="translate(11924.87 5594.103)" fill="#7a799c"/>
        <path id="Path_49" data-name="Path 49" d="M697.7,447.893l-42.951,54.882a13.928,13.928,0,0,1-12.588,5.249l-176.318-20.65a13.928,13.928,0,0,1-12.307-13.834V432.853Z" transform="translate(12575.109 5594.103)" fill="#7a799c"/>
        <path id="Path_51" data-name="Path 51" d="M962.056,475.688l-552.5-61.09a7.96,7.96,0,0,1-7.06-6.315,7.61,7.61,0,0,1,4.345-8.233l98.833-47.182a119.7,119.7,0,0,1,63-11.017l490.854,47.51a9.324,9.324,0,0,1,7.858,5.837,8.592,8.592,0,0,1-2.107,9.258l-57.16,55.668a57.25,57.25,0,0,1-46.061,15.565Z" transform="translate(12264.965 5594.103)" fill="#47465a"/>
        <path id="Path_52" data-name="Path 52" d="M1067.4,406.318l5.61-3.1s6.056,4.458,10.99,23.24-9.221.2-9.221.2l-6.193-12.828Z" transform="translate(11549.063 5594.103)" fill="#47465a"/>
        <path id="Path_53" data-name="Path 53" d="M797.135,578.38s5.75,26.982,8.4,34.5c1.3,3.68,7.582,7.046,14.544,9.621a97.381,97.381,0,0,0,19.073,4.976c7.52.885,103.947-14.154,150.834-24.328,31.587-6.852,35.669-14.712,34.971-19.109a6.38,6.38,0,0,0-1.8-3.45s-46.445-31.405-62.811-46.445-48.656-3.1-84.042,3.1S797.135,578.38,797.135,578.38Z" transform="translate(11886.611 5594.103)" fill="#47465a"/>
        <path id="Path_54" data-name="Path 54" d="M1002.437,403.217s-21.674,14.155,51.31,43.348c0,0,39.669,22.367,34.505,114.5a25.269,25.269,0,0,1-3.673,11.7c-7.53,12.385-23.666,43.737,3.227,47.63v7.078s-48.656-24.328-53.964-45.117-23-136.237-31.848-146.853S987.4,408.083,1002.437,403.217Z" transform="translate(11619.633 5594.103)" fill="#47465a"/>
        <path id="Path_55" data-name="Path 55" d="M797.133,622.5a97.377,97.377,0,0,0,19.073,4.976c7.52.885,103.947-14.154,150.834-24.328,31.587-6.852,35.669-14.712,34.971-19.109-20.763,7.1-88.183,29.632-112.378,31.494-28.751,2.212-83.68,8.36-87.842,4.18C800.19,618.1,798.553,619.8,797.133,622.5Z" transform="translate(11910.465 5594.103)" opacity="0.1"/>
        <path id="Path_56" data-name="Path 56" d="M832.172,806.621,790.151,614.65s-7.52-20.347-24.77-19.463l-15.923,7.963s26.54-6.193,32.29,14.154S824.21,806.621,824.21,806.621Z" transform="translate(12133.994 5594.103)" fill="#47465a"/>
        <path id="Path_57" data-name="Path 57" d="M840.136,675.143,823.328,557.926h-7.52l17.251,117.217Z" transform="translate(12022.539 5638)" fill="#47465a"/>
        <path id="Path_58" data-name="Path 58" d="M1075.015,833.6l15.924-183.124s0-15.482-7.962-23-33.665-28.97-33.665-28.97-6.587-1.551-11.895,13.489S995.4,777.427,995.4,777.427l7.077,3.1,45.562-173.393,31.405,29.636s6.193,11.058,3.1,21.232-14.6,175.6-14.6,175.6Z" transform="translate(11615.165 5594.103)" fill="#47465a"/>
        <path id="Path_59" data-name="Path 59" d="M976.373,579.158l-39.809,11.5-8.847-8.4,23-3.1Z" transform="translate(11769.193 5638)" fill="#47465a"/>
        <path id="Path_60" data-name="Path 60" d="M755.849,300.2l-6.455,96.824-141.1-13.712,5.615-94.649a9.519,9.519,0,0,1,10.3-8.922l122.942,10.341a9.52,9.52,0,0,1,8.7,10.119Z" transform="translate(12356.23 5594.103)" fill="#7a799c"/>
        <path id="Path_61" data-name="Path 61" d="M581.595,367.282l140.661,15.345,5.308.579L768.7,356.667v-5.751L628.925,338.328Z" transform="translate(12334.368 5638)" fill="#7a799c"/>
        <path id="Path_62" data-name="Path 62" d="M581.6,382.627l5.308.579,41.136-26.539v-5.149Z" transform="translate(12477.749 5638)" opacity="0.1"/>
        <path id="Path_63" data-name="Path 63" d="M712.082,255.373l-4.866,86.254-123.852-11.5,4.424-84.043Z" transform="translate(12390.39 5638)" fill="#9493b6"/>
        <path id="Path_64" data-name="Path 64" d="M717.832,365.513l-15.039,10.174-45.56-4.424,15.482-9.731Z" transform="translate(12308.968 5638)" opacity="0.1"/>
        <path id="Path_65" data-name="Path 65" d="M736.41,353.128l-19.02,14.154-121.641-11.5,21.674-14.155Z" transform="translate(12352.87 5638)" fill="#9493b6"/>
      </g>
    </g>
  </g>
</svg>
