<svg xmlns="http://www.w3.org/2000/svg" width="1135.862" height="795.85" viewBox="0 0 1135.862 795.85">
  <g id="Group_849" data-name="Group 849" transform="translate(9386.934 -1.786)">
    <g id="Group_589" data-name="Group 589" transform="translate(-9519 -67)">
      <g id="Group_576" data-name="Group 576">
        <g id="Group_565" data-name="Group 565">
          <g id="Group_564" data-name="Group 564">
            <path id="Path_382" data-name="Path 382" d="M751.517,214.759H648.478a21.47,21.47,0,0,1-21.467-21.467V90.253a21.47,21.47,0,0,1,21.467-21.467h103.04a21.47,21.47,0,0,1,21.467,21.467v103.04A21.47,21.47,0,0,1,751.517,214.759Z" fill="#40617c"/>
          </g>
        </g>
        <g id="Group_575" data-name="Group 575">
          <g id="Group_568" data-name="Group 568">
            <g id="Group_567" data-name="Group 567">
              <g id="Group_566" data-name="Group 566">
                <path id="Path_383" data-name="Path 383" d="M676.2,174.719l-29.867-29.867a4.281,4.281,0,0,1,0-6.067L676.2,108.92a4.29,4.29,0,0,1,6.067,6.067l-26.88,26.88,26.88,26.88a4.281,4.281,0,0,1,0,6.067A4.369,4.369,0,0,1,676.2,174.719Z" fill="#fff"/>
              </g>
            </g>
          </g>
          <g id="Group_571" data-name="Group 571">
            <g id="Group_570" data-name="Group 570">
              <g id="Group_569" data-name="Group 569">
                <path id="Path_384" data-name="Path 384" d="M717.731,174.719a4.281,4.281,0,0,1,0-6.067l26.88-26.88-26.88-26.88a4.29,4.29,0,1,1,6.067-6.067l29.867,29.867a4.281,4.281,0,0,1,0,6.067L723.8,174.626A4.2,4.2,0,0,1,717.731,174.719Z" fill="#fff"/>
              </g>
            </g>
          </g>
          <g id="Group_574" data-name="Group 574">
            <g id="Group_573" data-name="Group 573">
              <g id="Group_572" data-name="Group 572">
                <path id="Path_385" data-name="Path 385" d="M693.744,175.839a4.329,4.329,0,0,1-3.453-5.04l10.92-59.826a4.32,4.32,0,0,1,8.493,1.587l-10.92,59.826A4.329,4.329,0,0,1,693.744,175.839Z" fill="#82a6bf"/>
              </g>
            </g>
          </g>
        </g>
      </g>
      <g id="Group_588" data-name="Group 588">
        <g id="Group_577" data-name="Group 577">
          <path id="Path_386" data-name="Path 386" d="M636.624,229.319c3.547,0,5.04,2.053,5.04,5.507v2.707c0,3.547-1.68,5.413-5.227,5.413H634.2v8.867h-2.52v-22.4h4.947Zm-.28,11.293c1.867,0,2.707-.84,2.707-2.987v-2.987c0-2.053-.747-3.08-2.52-3.08H634.1v9.053Z" fill="#2f546d"/>
        </g>
        <g id="Group_578" data-name="Group 578">
          <path id="Path_387" data-name="Path 387" d="M648.664,229.319c3.547,0,4.947,1.773,4.947,5.133v1.867c0,2.427-.84,4.013-2.8,4.573,2.053.653,2.8,2.24,2.8,4.667v3.453a5.037,5.037,0,0,0,.467,2.707h-2.52a6.124,6.124,0,0,1-.373-2.707v-3.547c0-2.52-1.213-3.36-3.267-3.36h-1.773v9.52h-2.52v-22.4h5.04Zm-.653,10.547c1.96,0,3.173-.653,3.173-3.08v-2.147c0-2.053-.747-3.08-2.613-3.08h-2.427v8.307Z" fill="#2f546d"/>
        </g>
        <g id="Group_579" data-name="Group 579">
          <path id="Path_388" data-name="Path 388" d="M656.038,234.732c0-3.453,1.68-5.6,5.133-5.6s5.133,2.24,5.133,5.6v11.573c0,3.36-1.68,5.6-5.133,5.6s-5.133-2.24-5.133-5.6Zm2.52,11.76c0,2.053.84,3.267,2.613,3.267,1.867,0,2.613-1.213,2.613-3.267V234.639c0-2.053-.84-3.267-2.613-3.267s-2.613,1.213-2.613,3.267Z" fill="#2f546d"/>
        </g>
        <g id="Group_580" data-name="Group 580">
          <path id="Path_389" data-name="Path 389" d="M678.531,234.732v1.96H676.2v-2.053c0-2.053-.84-3.267-2.613-3.267s-2.613,1.213-2.613,3.267v11.853c0,2.053.84,3.267,2.613,3.267,1.867,0,2.613-1.213,2.613-3.267v-4.48h-2.333v-2.24h4.667V246.4c0,3.36-1.587,5.6-5.04,5.6s-5.04-2.24-5.04-5.6V234.826c0-3.36,1.587-5.6,5.04-5.6C676.944,229.133,678.531,231.372,678.531,234.732Z" fill="#2f546d"/>
        </g>
        <g id="Group_581" data-name="Group 581">
          <path id="Path_390" data-name="Path 390" d="M685.9,229.319c3.547,0,4.947,1.773,4.947,5.133v1.867c0,2.427-.84,4.013-2.8,4.573,2.053.653,2.8,2.24,2.8,4.667v3.453a5.037,5.037,0,0,0,.467,2.707H688.8a6.126,6.126,0,0,1-.373-2.707v-3.547c0-2.52-1.213-3.36-3.267-3.36h-1.773v9.52h-2.52v-22.4h5.04Zm-.653,10.547c1.96,0,3.173-.653,3.173-3.08v-2.147c0-2.053-.747-3.08-2.613-3.08h-2.427v8.307Z" fill="#2f546d"/>
        </g>
        <g id="Group_582" data-name="Group 582">
          <path id="Path_391" data-name="Path 391" d="M696.078,247.239l-.84,4.48H692.9l4.293-22.4h3.64l4.293,22.4h-2.52l-.84-4.48Zm.28-2.147H701.3l-2.52-12.88Z" fill="#2f546d"/>
        </g>
        <g id="Group_583" data-name="Group 583">
          <path id="Path_392" data-name="Path 392" d="M715.3,251.719h-2.427l-3.733-17.827v17.827H707v-22.4h3.453l3.64,17.92,3.547-17.92h3.453v22.4h-2.333V233.706Z" fill="#2f546d"/>
        </g>
        <g id="Group_584" data-name="Group 584">
          <path id="Path_393" data-name="Path 393" d="M732.011,251.719h-2.427l-3.733-17.827v17.827H723.7v-22.4h3.453l3.64,17.92,3.547-17.92H737.8v22.4h-2.333V233.706Z" fill="#2f546d"/>
        </g>
        <g id="Group_585" data-name="Group 585">
          <path id="Path_394" data-name="Path 394" d="M743.024,229.319v22.4H740.5v-22.4h2.52Z" fill="#2f546d"/>
        </g>
        <g id="Group_586" data-name="Group 586">
          <path id="Path_395" data-name="Path 395" d="M747.784,251.719h-2.24v-22.4h3.173l5.133,16.147V229.319h2.24v22.4h-2.613l-5.693-18.107v18.107Z" fill="#2f546d"/>
        </g>
        <g id="Group_587" data-name="Group 587">
          <path id="Path_396" data-name="Path 396" d="M768.5,234.732v1.96h-2.333v-2.053c0-2.053-.84-3.267-2.613-3.267s-2.613,1.213-2.613,3.267v11.853c0,2.053.84,3.267,2.613,3.267,1.867,0,2.613-1.213,2.613-3.267v-4.48h-2.333v-2.24H768.5V246.4c0,3.36-1.587,5.6-5.04,5.6s-5.04-2.24-5.04-5.6V234.826c0-3.36,1.587-5.6,5.04-5.6C766.917,229.133,768.5,231.372,768.5,234.732Z" fill="#2f546d"/>
        </g>
      </g>
    </g>
    <g id="Group_621" data-name="Group 621" transform="translate(-9519 -67)">
      <g id="Group_605" data-name="Group 605">
        <g id="Group_596" data-name="Group 596">
          <g id="Group_591" data-name="Group 591">
            <g id="Group_590" data-name="Group 590">
              <path id="Path_397" data-name="Path 397" d="M993.436,132.346v28h3.547v-28a9.24,9.24,0,1,0-3.547,0ZM995.21,117.6a5.693,5.693,0,1,1-5.693,5.693A5.657,5.657,0,0,1,995.21,117.6Z" fill="#82a6bf"/>
            </g>
          </g>
          <g id="Group_593" data-name="Group 593">
            <g id="Group_592" data-name="Group 592">
              <path id="Path_398" data-name="Path 398" d="M976.077,160.439h3.547V142.426a1.772,1.772,0,0,0-1.773-1.773H965.81a9.24,9.24,0,1,0,0,3.547h10.267Zm-19.32-12.413a5.693,5.693,0,1,1,5.693-5.693A5.777,5.777,0,0,1,956.757,148.026Z" fill="#82a6bf"/>
            </g>
          </g>
          <g id="Group_595" data-name="Group 595">
            <g id="Group_594" data-name="Group 594">
              <path id="Path_399" data-name="Path 399" d="M1033.663,133.093a9.211,9.211,0,0,0-9.053,7.467h-12.04a1.772,1.772,0,0,0-1.773,1.773v18.013h3.547v-16.24h10.267a9.233,9.233,0,1,0,9.053-11.013Zm0,14.933a5.693,5.693,0,1,1,5.693-5.693A5.716,5.716,0,0,1,1033.663,148.026Z" fill="#82a6bf"/>
            </g>
          </g>
        </g>
        <g id="Group_598" data-name="Group 598">
          <g id="Group_597" data-name="Group 597">
            <path id="Path_400" data-name="Path 400" d="M984.477,237.159h21.373v20.253H984.477Z" fill="#82a6bf"/>
          </g>
        </g>
        <g id="Group_600" data-name="Group 600">
          <g id="Group_599" data-name="Group 599">
            <path id="Path_401" data-name="Path 401" d="M1057.463,245.186H932.957a10.735,10.735,0,0,1-10.733-10.733V168.466a10.735,10.735,0,0,1,10.733-10.733h124.506a10.735,10.735,0,0,1,10.733,10.733v65.986A10.735,10.735,0,0,1,1057.463,245.186Z" fill="#40617c"/>
          </g>
        </g>
        <g id="Group_602" data-name="Group 602">
          <g id="Group_601" data-name="Group 601">
            <path id="Path_402" data-name="Path 402" d="M1061.01,220.546V168.559a3.545,3.545,0,0,0-3.547-3.547H932.957a3.545,3.545,0,0,0-3.547,3.547v51.986a3.545,3.545,0,0,0,3.547,3.547h124.506A3.545,3.545,0,0,0,1061.01,220.546Z" fill="#fff"/>
          </g>
        </g>
        <g id="Group_604" data-name="Group 604">
          <g id="Group_603" data-name="Group 603">
            <path id="Path_403" data-name="Path 403" d="M1014.623,260.026H975.7a2.509,2.509,0,0,1-2.52-2.52h0a2.509,2.509,0,0,1,2.52-2.52h38.92a2.509,2.509,0,0,1,2.52,2.52h0A2.4,2.4,0,0,1,1014.623,260.026Z" fill="#40617c"/>
          </g>
        </g>
      </g>
      <g id="Group_620" data-name="Group 620">
        <g id="Group_606" data-name="Group 606">
          <path id="Path_404" data-name="Path 404" d="M917.277,274.306v22.4h-2.52v-22.4Z" fill="#2f546d"/>
        </g>
        <g id="Group_607" data-name="Group 607">
          <path id="Path_405" data-name="Path 405" d="M928.1,296.612h-2.427l-3.733-17.827v17.827H919.8v-22.4h3.453l3.64,17.92,3.547-17.92h3.453v22.4h-2.333V278.6Z" fill="#2f546d"/>
        </g>
        <g id="Group_608" data-name="Group 608">
          <path id="Path_406" data-name="Path 406" d="M941.45,274.306c3.547,0,5.04,2.053,5.04,5.507v2.707c0,3.547-1.68,5.413-5.227,5.413h-2.24V296.8H936.5V274.4h4.947Zm-.187,11.293c1.867,0,2.707-.84,2.707-2.987v-2.987c0-2.053-.747-3.08-2.52-3.08h-2.427V285.6Z" fill="#2f546d"/>
        </g>
        <g id="Group_609" data-name="Group 609">
          <path id="Path_407" data-name="Path 407" d="M948.543,296.612v-22.4h2.52v20.067h6.44v2.24h-8.96Z" fill="#2f546d"/>
        </g>
        <g id="Group_610" data-name="Group 610">
          <path id="Path_408" data-name="Path 408" d="M967.21,284.2v2.24H961.7v7.933h6.72v2.24h-9.24v-22.4h9.24v2.24H961.7v7.653h5.507Z" fill="#2f546d"/>
        </g>
        <g id="Group_611" data-name="Group 611">
          <path id="Path_409" data-name="Path 409" d="M979.063,296.612h-2.427L972.9,278.786v17.827h-2.147v-22.4h3.453l3.64,17.92,3.547-17.92h3.453v22.4h-2.333V278.6Z" fill="#2f546d"/>
        </g>
        <g id="Group_612" data-name="Group 612">
          <path id="Path_410" data-name="Path 410" d="M995.49,284.2v2.24h-5.507v7.933h6.72v2.24h-9.24v-22.4h9.24v2.24h-6.72v7.653h5.507Z" fill="#2f546d"/>
        </g>
        <g id="Group_613" data-name="Group 613">
          <path id="Path_411" data-name="Path 411" d="M1001.276,296.612h-2.24v-22.4h3.173l5.227,16.147V274.212h2.24v22.4h-2.613l-5.693-18.107v18.107Z" fill="#2f546d"/>
        </g>
        <g id="Group_614" data-name="Group 614">
          <path id="Path_412" data-name="Path 412" d="M1015.37,296.612V276.546h-4.107v-2.24H1022v2.24h-4.107v20.067Z" fill="#2f546d"/>
        </g>
        <g id="Group_615" data-name="Group 615">
          <path id="Path_413" data-name="Path 413" d="M1024.983,292.132l-.84,4.48h-2.333l4.293-22.4h3.64l4.293,22.4h-2.52l-.84-4.48Zm.373-2.147h4.947l-2.52-12.88Z" fill="#2f546d"/>
        </g>
        <g id="Group_616" data-name="Group 616">
          <path id="Path_414" data-name="Path 414" d="M1039.263,296.612V276.546h-4.107v-2.24h10.733v2.24h-4.107v20.067Z" fill="#2f546d"/>
        </g>
        <g id="Group_617" data-name="Group 617">
          <path id="Path_415" data-name="Path 415" d="M1050.09,274.306v22.4h-2.52v-22.4Z" fill="#2f546d"/>
        </g>
        <g id="Group_618" data-name="Group 618">
          <path id="Path_416" data-name="Path 416" d="M1052.423,279.719c0-3.453,1.68-5.6,5.133-5.6s5.133,2.24,5.133,5.6v11.573c0,3.36-1.68,5.6-5.133,5.6s-5.133-2.24-5.133-5.6Zm2.52,11.667c0,2.053.84,3.267,2.613,3.267,1.867,0,2.613-1.213,2.613-3.267V279.532c0-2.053-.84-3.267-2.613-3.267s-2.613,1.213-2.613,3.267Z" fill="#2f546d"/>
        </g>
        <g id="Group_619" data-name="Group 619">
          <path id="Path_417" data-name="Path 417" d="M1067.263,296.612h-2.24v-22.4h3.173l5.227,16.147V274.212h2.24v22.4h-2.613l-5.693-18.107v18.107Z" fill="#2f546d"/>
        </g>
      </g>
    </g>
    <g id="Group_672" data-name="Group 672" transform="translate(-9519 -67)">
      <g id="Group_663" data-name="Group 663">
        <g id="Group_624" data-name="Group 624">
          <g id="Group_623" data-name="Group 623">
            <g id="Group_622" data-name="Group 622">
              <path id="Path_418" data-name="Path 418" d="M1244.969,395.639l-13.907,1.587-4.107,7.56-8.773-1.68-17.827,16.52,2.053,8.213-7.933,5.413-5.88-4.573-16.053,10.267-.56,10.36-9.8,1.12-2.147-11.667-16.333-10.92-6.253,3.267v71.866h114.893V401.705Z" fill="#82a6bf"/>
            </g>
          </g>
        </g>
        <g id="Group_627" data-name="Group 627">
          <g id="Group_626" data-name="Group 626">
            <g id="Group_625" data-name="Group 625">
              <path id="Path_419" data-name="Path 419" d="M1261.862,509.038h-133.84a6.055,6.055,0,0,1-6.067-6.067h0a6.055,6.055,0,0,1,6.067-6.067h133.84a6.055,6.055,0,0,1,6.067,6.067h0A6.055,6.055,0,0,1,1261.862,509.038Z" fill="#40617c"/>
            </g>
          </g>
        </g>
        <g id="Group_643" data-name="Group 643">
          <g id="Group_630" data-name="Group 630">
            <g id="Group_629" data-name="Group 629">
              <g id="Group_628" data-name="Group 628">
                <path id="Path_420" data-name="Path 420" d="M1137.449,434a10.36,10.36,0,1,1,10.36-10.36A10.4,10.4,0,0,1,1137.449,434Zm0-14.933a4.573,4.573,0,1,0,4.573,4.573A4.522,4.522,0,0,0,1137.449,419.065Z" fill="#40617c"/>
              </g>
            </g>
          </g>
          <g id="Group_633" data-name="Group 633">
            <g id="Group_632" data-name="Group 632">
              <g id="Group_631" data-name="Group 631">
                <path id="Path_421" data-name="Path 421" d="M1166.2,453.318a10.36,10.36,0,1,1,10.36-10.36A10.4,10.4,0,0,1,1166.2,453.318Zm0-14.933a4.573,4.573,0,1,0,4.573,4.573A4.581,4.581,0,0,0,1166.2,438.385Z" fill="#40617c"/>
              </g>
            </g>
          </g>
          <g id="Group_636" data-name="Group 636">
            <g id="Group_635" data-name="Group 635">
              <g id="Group_634" data-name="Group 634">
                <path id="Path_422" data-name="Path 422" d="M1194.943,435.025a10.36,10.36,0,1,1,10.36-10.36A10.4,10.4,0,0,1,1194.943,435.025Zm0-14.933a4.573,4.573,0,1,0,4.573,4.573A4.581,4.581,0,0,0,1194.943,420.092Z" fill="#40617c"/>
              </g>
            </g>
          </g>
          <g id="Group_639" data-name="Group 639">
            <g id="Group_638" data-name="Group 638">
              <g id="Group_637" data-name="Group 637">
                <path id="Path_423" data-name="Path 423" d="M1223.689,408.425a10.36,10.36,0,1,1,10.36-10.36A10.4,10.4,0,0,1,1223.689,408.425Zm0-14.933a4.573,4.573,0,1,0,4.573,4.573A4.581,4.581,0,0,0,1223.689,393.492Z" fill="#40617c"/>
              </g>
            </g>
          </g>
          <g id="Group_642" data-name="Group 642">
            <g id="Group_641" data-name="Group 641">
              <g id="Group_640" data-name="Group 640">
                <path id="Path_424" data-name="Path 424" d="M1252.342,405.065a10.36,10.36,0,1,1,10.36-10.36A10.4,10.4,0,0,1,1252.342,405.065Zm0-14.933a4.573,4.573,0,1,0,4.573,4.573A4.465,4.465,0,0,0,1252.342,390.132Z" fill="#40617c"/>
              </g>
            </g>
          </g>
        </g>
        <g id="Group_662" data-name="Group 662">
          <g id="Group_646" data-name="Group 646">
            <g id="Group_645" data-name="Group 645">
              <g id="Group_644" data-name="Group 644">
                <path id="Path_425" data-name="Path 425" d="M1136.049,431.105h2.893v71.866h-2.893Z" fill="#40617c"/>
              </g>
            </g>
          </g>
          <g id="Group_649" data-name="Group 649">
            <g id="Group_648" data-name="Group 648">
              <g id="Group_647" data-name="Group 647">
                <path id="Path_426" data-name="Path 426" d="M1250.942,401.705h2.893V502.972h-2.893Z" fill="#40617c"/>
              </g>
            </g>
          </g>
          <g id="Group_652" data-name="Group 652">
            <g id="Group_651" data-name="Group 651">
              <g id="Group_650" data-name="Group 650">
                <path id="Path_427" data-name="Path 427" d="M1231.062,394.985h14v2.893h-14Z" transform="translate(-37.309 144.674) rotate(-6.586)" fill="#40617c"/>
              </g>
            </g>
          </g>
          <g id="Group_655" data-name="Group 655">
            <g id="Group_654" data-name="Group 654">
              <g id="Group_653" data-name="Group 653">
                <path id="Path_428" data-name="Path 428" d="M1197.135,409.9h24.172V412.8h-24.172Z" transform="matrix(0.734, -0.679, 0.679, 0.734, 42.346, 930.844)" fill="#40617c"/>
              </g>
            </g>
          </g>
          <g id="Group_658" data-name="Group 658">
            <g id="Group_657" data-name="Group 657">
              <g id="Group_656" data-name="Group 656">
                <path id="Path_429" data-name="Path 429" d="M1170.938,432.4h19.133V435.3h-19.133Z" transform="translate(-48.261 701.981) rotate(-32.487)" fill="#40617c"/>
              </g>
            </g>
          </g>
          <g id="Group_661" data-name="Group 661">
            <g id="Group_660" data-name="Group 660">
              <g id="Group_659" data-name="Group 659">
                <path id="Path_430" data-name="Path 430" d="M1150.416,423.45h2.893v19.693h-2.893Z" transform="translate(149.406 1147.16) rotate(-56.068)" fill="#40617c"/>
              </g>
            </g>
          </g>
        </g>
      </g>
      <g id="Group_671" data-name="Group 671">
        <g id="Group_664" data-name="Group 664">
          <path id="Path_431" data-name="Path 431" d="M1156.022,541.425l-.84,4.48h-2.333l4.293-22.4h3.64l4.293,22.4h-2.52l-.84-4.48Zm.28-2.147h4.947l-2.52-12.88Z" fill="#2f546d"/>
        </g>
        <g id="Group_665" data-name="Group 665">
          <path id="Path_432" data-name="Path 432" d="M1169.182,545.9h-2.24V523.5h3.173l5.227,16.147V523.5h2.24v22.4h-2.613l-5.693-18.107V545.9Z" fill="#2f546d"/>
        </g>
        <g id="Group_666" data-name="Group 666">
          <path id="Path_433" data-name="Path 433" d="M1182.529,541.425l-.84,4.48h-2.333l4.293-22.4h3.64l4.293,22.4h-2.52l-.84-4.48Zm.373-2.147h4.947l-2.52-12.88Z" fill="#2f546d"/>
        </g>
        <g id="Group_667" data-name="Group 667">
          <path id="Path_434" data-name="Path 434" d="M1193.542,545.9V523.5h2.52v20.067h6.44v2.24h-8.96Z" fill="#2f546d"/>
        </g>
        <g id="Group_668" data-name="Group 668">
          <path id="Path_435" data-name="Path 435" d="M1206.329,537.878l-4.76-14.373h2.613l3.453,11.013,3.547-11.013h2.333l-4.76,14.373V545.9h-2.427v-8.027Z" fill="#2f546d"/>
        </g>
        <g id="Group_669" data-name="Group 669">
          <path id="Path_436" data-name="Path 436" d="M1225.089,545.9h-10.173v-2.24l7.653-17.92h-7.28V523.5h9.893v2.24l-7.747,17.92h7.653v2.24Z" fill="#2f546d"/>
        </g>
        <g id="Group_670" data-name="Group 670">
          <path id="Path_437" data-name="Path 437" d="M1235.356,533.4v2.24h-5.507v7.933h6.72v2.24h-9.24v-22.4h9.24v2.24h-6.72V533.3h5.507Z" fill="#2f546d"/>
        </g>
      </g>
    </g>
    <g id="Group_687" data-name="Group 687" transform="translate(-9519 -67)">
      <g id="Group_679" data-name="Group 679">
        <g id="Group_675" data-name="Group 675">
          <g id="Group_674" data-name="Group 674">
            <g id="Group_673" data-name="Group 673">
              <path id="Path_438" data-name="Path 438" d="M1052.236,723.517l9.147-46.2-40.507-40.507-46.2,9.147a12.613,12.613,0,0,0-9.707,9.147L941.823,743.4a3,3,0,0,0,.747,2.893h0a2.987,2.987,0,0,0,4.293,0L993.25,699.9a11.023,11.023,0,1,1,4.947,5.04L951.81,751.331a2.987,2.987,0,0,0,0,4.293h0a3,3,0,0,0,2.893.747L1043,733.224A12.453,12.453,0,0,0,1052.236,723.517Z" fill="#82a6bf"/>
            </g>
          </g>
        </g>
        <g id="Group_678" data-name="Group 678">
          <g id="Group_677" data-name="Group 677">
            <g id="Group_676" data-name="Group 676">
              <path id="Path_439" data-name="Path 439" d="M1062.13,687.864l-51.8-51.8a6.31,6.31,0,0,1,0-8.867l12.04-12.04a6.31,6.31,0,0,1,8.867,0l51.8,51.8a6.31,6.31,0,0,1,0,8.867L1071,687.864A6.145,6.145,0,0,1,1062.13,687.864Z" fill="#40617c"/>
            </g>
          </g>
        </g>
      </g>
      <g id="Group_686" data-name="Group 686">
        <g id="Group_680" data-name="Group 680">
          <path id="Path_440" data-name="Path 440" d="M986.623,770.744c3.453,0,5.04,2.147,5.04,5.6v11.293c0,3.453-1.587,5.507-5.04,5.507H981.4v-22.4Zm-.093,20.16c1.773,0,2.613-1.12,2.613-3.173v-11.48c0-2.053-.84-3.173-2.707-3.173H983.73V790.9h2.8Z" fill="#2f546d"/>
        </g>
        <g id="Group_681" data-name="Group 681">
          <path id="Path_441" data-name="Path 441" d="M1002.023,780.731v2.24h-5.507V790.9h6.72v2.24H994v-22.4h9.24v2.24h-6.72v7.653h5.507Z" fill="#2f546d"/>
        </g>
        <g id="Group_682" data-name="Group 682">
          <path id="Path_442" data-name="Path 442" d="M1015.183,776.157v.653h-2.333v-.747c0-2.053-.747-3.173-2.52-3.173s-2.52,1.213-2.52,3.173c0,5.04,7.56,5.507,7.56,11.76,0,3.36-1.587,5.6-5.04,5.6s-5.04-2.24-5.04-5.6v-1.307h2.333v1.4c0,2.053.84,3.173,2.613,3.173s2.613-1.213,2.613-3.173c0-4.947-7.467-5.507-7.467-11.76,0-3.453,1.587-5.6,4.947-5.6C1013.6,770.557,1015.183,772.8,1015.183,776.157Z" fill="#2f546d"/>
        </g>
        <g id="Group_683" data-name="Group 683">
          <path id="Path_443" data-name="Path 443" d="M1019.943,770.744v22.4h-2.52v-22.4Z" fill="#2f546d"/>
        </g>
        <g id="Group_684" data-name="Group 684">
          <path id="Path_444" data-name="Path 444" d="M1032.356,776.157v1.96h-2.333v-2.053c0-2.053-.84-3.267-2.613-3.267s-2.613,1.213-2.613,3.267v11.853c0,2.053.84,3.267,2.613,3.267,1.867,0,2.613-1.213,2.613-3.267v-4.48h-2.333V781.2h4.667v6.627c0,3.36-1.587,5.6-5.04,5.6s-5.04-2.24-5.04-5.6V776.25c0-3.36,1.587-5.6,5.04-5.6C1030.77,770.557,1032.356,772.8,1032.356,776.157Z" fill="#2f546d"/>
        </g>
        <g id="Group_685" data-name="Group 685">
          <path id="Path_445" data-name="Path 445" d="M1036.93,793.144h-2.24v-22.4h3.173L1043,786.891V770.744h2.24v22.4h-2.613l-5.693-18.107Z" fill="#2f546d"/>
        </g>
      </g>
    </g>
    <g id="Group_726" data-name="Group 726" transform="translate(-9519 -67)">
      <g id="Group_717" data-name="Group 717">
        <g id="Group_713" data-name="Group 713">
          <g id="Group_690" data-name="Group 690">
            <g id="Group_689" data-name="Group 689">
              <g id="Group_688" data-name="Group 688">
                <path id="Path_446" data-name="Path 446" d="M772.984,781.571v6.16a7.19,7.19,0,0,1-7.187,7.187H634.1a7.19,7.19,0,0,1-7.187-7.187v-5.32c0-40.32,32.387-73.64,72.8-73.826A72.914,72.914,0,0,1,772.984,781.571Z" fill="#40617c"/>
              </g>
            </g>
          </g>
          <g id="Group_694" data-name="Group 694">
            <g id="Group_693" data-name="Group 693">
              <g id="Group_692" data-name="Group 692">
                <g id="Group_691" data-name="Group 691">
                  <path id="Path_447" data-name="Path 447" d="M700,735.091h0a3.645,3.645,0,0,1-3.64-3.64V719.224a3.645,3.645,0,0,1,3.64-3.64h0a3.645,3.645,0,0,1,3.64,3.64v12.227A3.644,3.644,0,0,1,700,735.091Z" fill="#fff"/>
                </g>
              </g>
            </g>
          </g>
          <g id="Group_698" data-name="Group 698">
            <g id="Group_697" data-name="Group 697">
              <g id="Group_696" data-name="Group 696">
                <g id="Group_695" data-name="Group 695">
                  <path id="Path_448" data-name="Path 448" d="M732.851,748.717h0a3.662,3.662,0,0,1,0-5.133L741.437,735a3.662,3.662,0,0,1,5.133,0h0a3.662,3.662,0,0,1,0,5.133l-8.587,8.587A3.662,3.662,0,0,1,732.851,748.717Z" fill="#fff"/>
                </g>
              </g>
            </g>
          </g>
          <g id="Group_705" data-name="Group 705">
            <g id="Group_701" data-name="Group 701">
              <g id="Group_700" data-name="Group 700">
                <g id="Group_699" data-name="Group 699">
                  <path id="Path_449" data-name="Path 449" d="M746.477,781.571h0a3.645,3.645,0,0,1,3.64-3.64h12.227a3.645,3.645,0,0,1,3.64,3.64h0a3.645,3.645,0,0,1-3.64,3.64H750.117A3.645,3.645,0,0,1,746.477,781.571Z" fill="#fff"/>
                </g>
              </g>
            </g>
            <g id="Group_704" data-name="Group 704">
              <g id="Group_703" data-name="Group 703">
                <g id="Group_702" data-name="Group 702">
                  <path id="Path_450" data-name="Path 450" d="M634.1,781.571h0a3.645,3.645,0,0,1,3.64-3.64h12.227a3.644,3.644,0,0,1,3.64,3.64h0a3.645,3.645,0,0,1-3.64,3.64H637.744A3.706,3.706,0,0,1,634.1,781.571Z" fill="#fff"/>
                </g>
              </g>
            </g>
          </g>
          <g id="Group_709" data-name="Group 709">
            <g id="Group_708" data-name="Group 708">
              <g id="Group_707" data-name="Group 707">
                <g id="Group_706" data-name="Group 706">
                  <path id="Path_451" data-name="Path 451" d="M653.424,735h0a3.662,3.662,0,0,1,5.133,0l8.587,8.587a3.662,3.662,0,0,1,0,5.133h0a3.662,3.662,0,0,1-5.133,0l-8.587-8.587A3.662,3.662,0,0,1,653.424,735Z" fill="#fff"/>
                </g>
              </g>
            </g>
          </g>
          <g id="Group_712" data-name="Group 712">
            <g id="Group_711" data-name="Group 711">
              <g id="Group_710" data-name="Group 710">
                <path id="Path_452" data-name="Path 452" d="M700,783.717a1.757,1.757,0,0,1-.747-.187,2.131,2.131,0,0,1-1.213-2.8l11.947-30.24A2.158,2.158,0,1,1,714,752.077l-11.947,30.24A2.182,2.182,0,0,1,700,783.717Z" fill="#fff"/>
              </g>
            </g>
          </g>
        </g>
        <g id="Group_716" data-name="Group 716">
          <g id="Group_715" data-name="Group 715">
            <g id="Group_714" data-name="Group 714">
              <path id="Path_453" data-name="Path 453" d="M708.771,781.571A8.773,8.773,0,1,1,700,772.8,8.773,8.773,0,0,1,708.771,781.571Z" fill="#82a6bf"/>
            </g>
          </g>
        </g>
      </g>
      <g id="Group_725" data-name="Group 725">
        <g id="Group_718" data-name="Group 718">
          <path id="Path_454" data-name="Path 454" d="M666.024,831.877V811.81h-4.107v-2.24h10.733v2.24h-4.107v20.067Z" fill="#2f546d"/>
        </g>
        <g id="Group_719" data-name="Group 719">
          <path id="Path_455" data-name="Path 455" d="M682.358,819.37v2.24h-5.507v7.933h6.72v2.24h-9.24v-22.4h9.24v2.24h-6.72v7.653h5.507Z" fill="#2f546d"/>
        </g>
        <g id="Group_720" data-name="Group 720">
          <path id="Path_456" data-name="Path 456" d="M695.611,814.89v.653h-2.333V814.8c0-2.053-.747-3.173-2.52-3.173s-2.52,1.213-2.52,3.173c0,5.04,7.56,5.507,7.56,11.76,0,3.36-1.587,5.6-5.04,5.6s-5.04-2.24-5.04-5.6V825.25h2.333v1.4c0,2.053.84,3.173,2.613,3.173s2.613-1.213,2.613-3.173c0-4.947-7.467-5.507-7.467-11.76,0-3.453,1.587-5.6,4.947-5.6C694.024,809.29,695.611,811.53,695.611,814.89Z" fill="#2f546d"/>
        </g>
        <g id="Group_721" data-name="Group 721">
          <path id="Path_457" data-name="Path 457" d="M701.024,831.877V811.81h-4.107v-2.24h10.733v2.24h-4.107v20.067Z" fill="#2f546d"/>
        </g>
        <g id="Group_722" data-name="Group 722">
          <path id="Path_458" data-name="Path 458" d="M711.851,809.477v22.4h-2.52v-22.4Z" fill="#2f546d"/>
        </g>
        <g id="Group_723" data-name="Group 723">
          <path id="Path_459" data-name="Path 459" d="M716.7,831.877h-2.24v-22.4h3.173l5.227,16.147V809.477h2.24v22.4H722.4L716.7,813.77Z" fill="#2f546d"/>
        </g>
        <g id="Group_724" data-name="Group 724">
          <path id="Path_460" data-name="Path 460" d="M737.424,814.89v1.96h-2.333V814.8c0-2.053-.84-3.267-2.613-3.267s-2.613,1.213-2.613,3.267V826.65c0,2.053.84,3.267,2.613,3.267,1.867,0,2.613-1.213,2.613-3.267v-4.48h-2.333v-2.24h4.667v6.627c0,3.36-1.587,5.6-5.04,5.6s-5.04-2.24-5.04-5.6V814.984c0-3.36,1.587-5.6,5.04-5.6C735.837,809.29,737.424,811.53,737.424,814.89Z" fill="#2f546d"/>
        </g>
      </g>
    </g>
    <g id="Group_749" data-name="Group 749" transform="translate(-9519 -67)">
      <g id="Group_737" data-name="Group 737">
        <g id="Group_731" data-name="Group 731">
          <g id="Group_728" data-name="Group 728">
            <g id="Group_727" data-name="Group 727">
              <path id="Path_461" data-name="Path 461" d="M429.052,649.224a6.265,6.265,0,0,0-7.187-5.32h0a6.142,6.142,0,0,1-6.44-3.08l-3.453-6.067a6.365,6.365,0,0,1,.56-7.093,6.256,6.256,0,0,0-.933-8.867,46.9,46.9,0,0,0-11.293-6.533,6.262,6.262,0,0,0-8.213,3.547h0a6.277,6.277,0,0,1-5.88,4.013h-7a6.277,6.277,0,0,1-5.88-4.013h0a6.189,6.189,0,0,0-8.213-3.547,46.9,46.9,0,0,0-11.293,6.533,6.176,6.176,0,0,0-.933,8.867,6.2,6.2,0,0,1,.56,7.093L350,640.824a6.362,6.362,0,0,1-6.44,3.08h0a6.2,6.2,0,0,0-7.187,5.32,45.966,45.966,0,0,0,0,13.067,6.265,6.265,0,0,0,7.187,5.32h0a6.141,6.141,0,0,1,6.44,3.08l3.453,6.067a6.365,6.365,0,0,1-.56,7.093h0a6.256,6.256,0,0,0,.933,8.867,46.9,46.9,0,0,0,11.293,6.533,6.262,6.262,0,0,0,8.213-3.547h0a6.277,6.277,0,0,1,5.88-4.013h7a6.277,6.277,0,0,1,5.88,4.013h0a6.189,6.189,0,0,0,8.213,3.547,46.9,46.9,0,0,0,11.293-6.533,6.176,6.176,0,0,0,.933-8.867,6.2,6.2,0,0,1-.56-7.093l3.453-6.067a6.362,6.362,0,0,1,6.44-3.08h0a6.2,6.2,0,0,0,7.187-5.32,50.069,50.069,0,0,0,.467-6.533A51.263,51.263,0,0,0,429.052,649.224Zm-46.387,31.92a25.293,25.293,0,1,1,25.293-25.293A25.254,25.254,0,0,1,382.665,681.144Z" fill="#40617c"/>
            </g>
          </g>
          <g id="Group_730" data-name="Group 730">
            <g id="Group_729" data-name="Group 729">
              <path id="Path_462" data-name="Path 462" d="M393.955,655.845a11.293,11.293,0,1,1-11.293-11.293A11.293,11.293,0,0,1,393.955,655.845Z" transform="translate(-351.646 462.67) rotate(-45)" fill="#82a6bf"/>
            </g>
          </g>
        </g>
        <g id="Group_736" data-name="Group 736">
          <g id="Group_733" data-name="Group 733">
            <g id="Group_732" data-name="Group 732">
              <path id="Path_463" data-name="Path 463" d="M426.718,757.584a4.32,4.32,0,0,0,3.64-4.947h0a4.4,4.4,0,0,1,2.147-4.48l4.2-2.427a4.2,4.2,0,0,1,4.853.373,4.417,4.417,0,0,0,6.16-.653,29.517,29.517,0,0,0,4.48-7.84,4.3,4.3,0,0,0-2.52-5.693h0a4.333,4.333,0,0,1-2.8-4.013v-4.853a4.241,4.241,0,0,1,2.8-4.013h0a4.454,4.454,0,0,0,2.52-5.693,36.263,36.263,0,0,0-4.48-7.84,4.334,4.334,0,0,0-6.16-.653,4.229,4.229,0,0,1-4.853.373l-4.2-2.427a4.4,4.4,0,0,1-2.147-4.48h0a4.226,4.226,0,0,0-3.64-4.947,36.089,36.089,0,0,0-4.48-.28,34.991,34.991,0,0,0-4.48.28,4.32,4.32,0,0,0-3.64,4.947h0a4.4,4.4,0,0,1-2.147,4.48l-4.2,2.427a4.2,4.2,0,0,1-4.853-.373h0a4.417,4.417,0,0,0-6.16.653,29.516,29.516,0,0,0-4.48,7.84,4.3,4.3,0,0,0,2.52,5.693h0a4.333,4.333,0,0,1,2.8,4.013V727.9a4.241,4.241,0,0,1-2.8,4.013h0a4.454,4.454,0,0,0-2.52,5.693,36.262,36.262,0,0,0,4.48,7.84,4.334,4.334,0,0,0,6.16.653,4.229,4.229,0,0,1,4.853-.373l4.2,2.427a4.4,4.4,0,0,1,2.147,4.48h0a4.226,4.226,0,0,0,3.64,4.947,36.089,36.089,0,0,0,4.48.28A18.1,18.1,0,0,0,426.718,757.584Zm-22.027-32.013a17.453,17.453,0,1,1,17.453,17.453A17.486,17.486,0,0,1,404.692,725.571Z" fill="#40617c"/>
            </g>
          </g>
          <g id="Group_735" data-name="Group 735">
            <g id="Group_734" data-name="Group 734">
              <path id="Path_464" data-name="Path 464" d="M429.981,725.564a7.84,7.84,0,1,1-7.84-7.84A7.84,7.84,0,0,1,429.981,725.564Z" transform="translate(-389.388 511.043) rotate(-45)" fill="#82a6bf"/>
            </g>
          </g>
        </g>
      </g>
      <g id="Group_748" data-name="Group 748">
        <g id="Group_738" data-name="Group 738">
          <path id="Path_465" data-name="Path 465" d="M337.492,772.144c3.453,0,5.04,2.147,5.04,5.6v11.293c0,3.453-1.587,5.507-5.04,5.507h-5.227v-22.4Zm0,20.16c1.773,0,2.613-1.12,2.613-3.173v-11.48c0-2.053-.84-3.173-2.707-3.173h-2.707V792.3h2.8Z" fill="#2f546d"/>
        </g>
        <g id="Group_739" data-name="Group 739">
          <path id="Path_466" data-name="Path 466" d="M352.892,782.037v2.24h-5.507v7.933h6.72v2.24h-9.24v-22.4h9.24v2.24h-6.72v7.653h5.507Z" fill="#2f546d"/>
        </g>
        <g id="Group_740" data-name="Group 740">
          <path id="Path_467" data-name="Path 467" d="M358.305,772.144l3.64,19.507,3.64-19.507h2.333l-4.2,22.4h-3.64l-4.2-22.4Z" fill="#2f546d"/>
        </g>
        <g id="Group_741" data-name="Group 741">
          <path id="Path_468" data-name="Path 468" d="M377.812,782.037v2.24h-5.507v7.933h6.72v2.24h-9.24v-22.4h9.24v2.24h-6.72v7.653h5.507Z" fill="#2f546d"/>
        </g>
        <g id="Group_742" data-name="Group 742">
          <path id="Path_469" data-name="Path 469" d="M381.172,777.557c0-3.453,1.68-5.6,5.133-5.6s5.133,2.24,5.133,5.6V789.13c0,3.36-1.68,5.6-5.133,5.6s-5.133-2.24-5.133-5.6Zm2.427,11.76c0,2.053.84,3.267,2.613,3.267,1.867,0,2.613-1.213,2.613-3.267V777.464c0-2.053-.84-3.267-2.613-3.267s-2.613,1.213-2.613,3.267Z" fill="#2f546d"/>
        </g>
        <g id="Group_743" data-name="Group 743">
          <path id="Path_470" data-name="Path 470" d="M398.625,772.144c3.547,0,5.04,2.053,5.04,5.507v2.707c0,3.547-1.68,5.413-5.227,5.413H396.2v8.867h-2.52v-22.4h4.947Zm-.187,11.387c1.867,0,2.707-.84,2.707-2.987v-3.08c0-2.053-.747-3.08-2.52-3.08H396.2v9.053h2.24Z" fill="#2f546d"/>
        </g>
        <g id="Group_744" data-name="Group 744">
          <path id="Path_471" data-name="Path 471" d="M414.025,794.544H411.6l-3.733-17.827v17.827h-2.147v-22.4h3.453l3.64,17.92,3.547-17.92h3.453v22.4h-2.333V776.531Z" fill="#2f546d"/>
        </g>
        <g id="Group_745" data-name="Group 745">
          <path id="Path_472" data-name="Path 472" d="M430.452,782.037v2.24h-5.507v7.933h6.72v2.24h-9.24v-22.4h9.24v2.24h-6.72v7.653h5.507Z" fill="#2f546d"/>
        </g>
        <g id="Group_746" data-name="Group 746">
          <path id="Path_473" data-name="Path 473" d="M436.145,794.544h-2.24v-22.4h3.173l5.227,16.147V772.144h2.24v22.4h-2.613l-5.693-18.107v18.107Z" fill="#2f546d"/>
        </g>
        <g id="Group_747" data-name="Group 747">
          <path id="Path_474" data-name="Path 474" d="M450.332,794.544V774.477h-4.107v-2.24h10.733v2.24h-4.107v20.067Z" fill="#2f546d"/>
        </g>
      </g>
    </g>
    <g id="Group_771" data-name="Group 771" transform="translate(-9519 -67)">
      <g id="Group_761" data-name="Group 761">
        <g id="Group_751" data-name="Group 751">
          <g id="Group_750" data-name="Group 750">
            <path id="Path_475" data-name="Path 475" d="M256.572,519.771H153.533A21.47,21.47,0,0,1,132.066,498.3V395.172a21.47,21.47,0,0,1,21.467-21.467h103.04a21.47,21.47,0,0,1,21.467,21.467v103.04A21.49,21.49,0,0,1,256.572,519.771Z" fill="#40617c"/>
          </g>
        </g>
        <g id="Group_760" data-name="Group 760">
          <g id="Group_753" data-name="Group 753">
            <g id="Group_752" data-name="Group 752">
              <path id="Path_476" data-name="Path 476" d="M154.933,429.332a5.446,5.446,0,0,0,3.827,1.587,5.614,5.614,0,0,0,3.827-1.587l7.747-7.747,7.747,7.747a5.446,5.446,0,0,0,3.827,1.587,5.614,5.614,0,0,0,3.827-1.587,5.409,5.409,0,0,0,0-7.56l-7.747-7.747,7.747-7.747a5.346,5.346,0,0,0-7.56-7.56l-7.747,7.747-7.747-7.747a5.346,5.346,0,1,0-7.56,7.56l7.747,7.747-7.747,7.747A5.246,5.246,0,0,0,154.933,429.332Z" fill="#82a6bf"/>
            </g>
          </g>
          <g id="Group_755" data-name="Group 755">
            <g id="Group_754" data-name="Group 754">
              <path id="Path_477" data-name="Path 477" d="M245.372,481.6l7.747-7.747a5.346,5.346,0,1,0-7.56-7.56l-7.747,7.747-7.747-7.747a5.346,5.346,0,1,0-7.56,7.56l7.747,7.747-7.747,7.747a5.367,5.367,0,0,0,3.827,9.147,5.614,5.614,0,0,0,3.827-1.587l7.747-7.747,7.747,7.747a5.446,5.446,0,0,0,3.827,1.587,5.614,5.614,0,0,0,3.827-1.587,5.409,5.409,0,0,0,0-7.56Z" fill="#82a6bf"/>
            </g>
          </g>
          <g id="Group_757" data-name="Group 757">
            <g id="Group_756" data-name="Group 756">
              <path id="Path_478" data-name="Path 478" d="M237.812,430.918a16.893,16.893,0,1,0-16.893-16.893A16.889,16.889,0,0,0,237.812,430.918Zm0-23.053a6.16,6.16,0,1,1-6.16,6.16A6.215,6.215,0,0,1,237.812,407.865Z" fill="#fff"/>
            </g>
          </g>
          <g id="Group_759" data-name="Group 759">
            <g id="Group_758" data-name="Group 758">
              <path id="Path_479" data-name="Path 479" d="M214.479,442.118v-.467a9024.834,9024.834,0,0,0-.187-.56c0-.093-.093-.187-.093-.28s-.093-.187-.093-.28a.326.326,0,0,0-.093-.187c0-.093-.093-.187-.093-.28a.326.326,0,0,0-.093-.187c-.093-.093-.093-.187-.187-.28s-.093-.187-.187-.187l-.187-.187c-.093-.093-.187-.28-.373-.373h0c-.093-.093-.28-.187-.373-.373l-.187-.187c-.093-.093-.187-.093-.187-.187a.289.289,0,0,0-.187-.093,1595.667,1595.667,0,0,1-.373-.187c-.093,0-.187-.093-.28-.093a.326.326,0,0,1-.187-.093c-.093,0-.187-.093-.28-.093s-.187,0-.187-.093c-.093,0-.187-.093-.28-.093h-23.8a5.413,5.413,0,1,0,0,10.827h9.8l-41.44,41.067a5.367,5.367,0,0,0,3.827,9.147,5.614,5.614,0,0,0,3.827-1.587l41.253-41.253v9.8a5.413,5.413,0,0,0,10.827,0V442.585C214.479,442.492,214.479,442.305,214.479,442.118Z" fill="#fff"/>
            </g>
          </g>
        </g>
      </g>
      <g id="Group_770" data-name="Group 770">
        <g id="Group_762" data-name="Group 762">
          <path id="Path_480" data-name="Path 480" d="M164.826,533.771c3.547,0,5.04,2.053,5.04,5.507v2.707c0,3.547-1.68,5.413-5.227,5.413H162.4v8.867h-2.52v-22.4h4.947Zm-.187,11.293c1.867,0,2.707-.84,2.707-2.987v-2.987c0-2.053-.747-3.08-2.52-3.08H162.4v9.053Z" fill="#2f546d"/>
        </g>
        <g id="Group_763" data-name="Group 763">
          <path id="Path_481" data-name="Path 481" d="M171.919,556.171v-22.4h2.52v20.067h6.44v2.24h-8.96Z" fill="#2f546d"/>
        </g>
        <g id="Group_764" data-name="Group 764">
          <path id="Path_482" data-name="Path 482" d="M185.266,551.691l-.84,4.48h-2.333l4.293-22.4h3.64l4.293,22.4H191.8l-.84-4.48Zm.28-2.147h4.947l-2.52-12.88Z" fill="#2f546d"/>
        </g>
        <g id="Group_765" data-name="Group 765">
          <path id="Path_483" data-name="Path 483" d="M198.426,556.171h-2.24v-22.4h3.173l5.227,16.147V533.771h2.24v22.4h-2.613l-5.693-18.107v18.107Z" fill="#2f546d"/>
        </g>
        <g id="Group_766" data-name="Group 766">
          <path id="Path_484" data-name="Path 484" d="M211.493,556.171h-2.24v-22.4h3.173l5.227,16.147V533.771h2.24v22.4h-2.613l-5.693-18.107v18.107Z" fill="#2f546d"/>
        </g>
        <g id="Group_767" data-name="Group 767">
          <path id="Path_485" data-name="Path 485" d="M224.839,533.771v22.4h-2.52v-22.4Z" fill="#2f546d"/>
        </g>
        <g id="Group_768" data-name="Group 768">
          <path id="Path_486" data-name="Path 486" d="M229.6,556.171h-2.24v-22.4h3.173l5.227,16.147V533.771H238v22.4h-2.613l-5.693-18.107v18.107Z" fill="#2f546d"/>
        </g>
        <g id="Group_769" data-name="Group 769">
          <path id="Path_487" data-name="Path 487" d="M250.412,539.185v1.96h-2.333v-2.053c0-2.053-.84-3.267-2.613-3.267s-2.613,1.213-2.613,3.267v11.853c0,2.053.84,3.267,2.613,3.267,1.867,0,2.613-1.213,2.613-3.267v-4.48h-2.333v-2.333h4.667v6.627c0,3.36-1.587,5.6-5.04,5.6s-5.04-2.24-5.04-5.6V539.185c0-3.36,1.587-5.6,5.04-5.6C248.732,533.585,250.412,535.825,250.412,539.185Z" fill="#2f546d"/>
        </g>
      </g>
    </g>
    <g id="Group_812" data-name="Group 812" transform="translate(-9519 -67)">
      <g id="Group_785" data-name="Group 785">
        <g id="Group_781" data-name="Group 781">
          <g id="Group_774" data-name="Group 774">
            <g id="Group_773" data-name="Group 773">
              <g id="Group_772" data-name="Group 772">
                <path id="Path_488" data-name="Path 488" d="M414.4,114.053a72.986,72.986,0,1,0,72.986,72.986A72.973,72.973,0,0,0,414.4,114.053Zm0,135.986a64.4,64.4,0,1,1,64.4-64.4A64.409,64.409,0,0,1,414.4,250.039Z" fill="#40617c"/>
              </g>
            </g>
          </g>
          <g id="Group_777" data-name="Group 777">
            <g id="Group_776" data-name="Group 776">
              <g id="Group_775" data-name="Group 775">
                <path id="Path_489" data-name="Path 489" d="M482.345,187.039A67.946,67.946,0,1,1,414.4,119.093,67.946,67.946,0,0,1,482.345,187.039Z" fill="#82a6bf"/>
              </g>
            </g>
          </g>
          <g id="Group_780" data-name="Group 780">
            <g id="Group_779" data-name="Group 779">
              <g id="Group_778" data-name="Group 778">
                <path id="Path_490" data-name="Path 490" d="M471.425,187.039A57.026,57.026,0,1,1,414.4,130.013a57.026,57.026,0,0,1,57.026,57.026Z" fill="#40617c"/>
              </g>
            </g>
          </g>
        </g>
        <g id="Group_784" data-name="Group 784">
          <g id="Group_783" data-name="Group 783">
            <g id="Group_782" data-name="Group 782">
              <path id="Path_491" data-name="Path 491" d="M396.012,222.133a8.82,8.82,0,0,1-6.347-2.613l-15.587-15.587a8.976,8.976,0,0,1,12.693-12.693l9.24,9.24,46.013-46.013a8.976,8.976,0,0,1,12.693,12.693l-52.266,52.266A8.9,8.9,0,0,1,396.012,222.133Z" fill="#fff"/>
            </g>
          </g>
        </g>
      </g>
      <g id="Group_811" data-name="Group 811">
        <g id="Group_786" data-name="Group 786">
          <path id="Path_492" data-name="Path 492" d="M340.385,274.492,344.025,294l3.64-19.507H350l-4.2,22.4h-3.64l-4.2-22.4Z" fill="#2f546d"/>
        </g>
        <g id="Group_787" data-name="Group 787">
          <path id="Path_493" data-name="Path 493" d="M353.545,292.412l-.84,4.48h-2.333l4.293-22.4h3.64l4.293,22.4h-2.52l-.84-4.48Zm.373-2.147h4.947l-2.52-12.88Z" fill="#2f546d"/>
        </g>
        <g id="Group_788" data-name="Group 788">
          <path id="Path_494" data-name="Path 494" d="M364.559,296.892v-22.4h2.52v20.067h6.44v2.24h-8.96Z" fill="#2f546d"/>
        </g>
        <g id="Group_789" data-name="Group 789">
          <path id="Path_495" data-name="Path 495" d="M377.812,274.492v22.4h-2.52v-22.4Z" fill="#2f546d"/>
        </g>
        <g id="Group_790" data-name="Group 790">
          <path id="Path_496" data-name="Path 496" d="M385.559,274.492c3.453,0,5.04,2.147,5.04,5.6v11.293c0,3.453-1.587,5.507-5.04,5.507h-5.227v-22.4Zm0,20.16c1.773,0,2.613-1.12,2.613-3.173V280c0-2.053-.84-3.173-2.707-3.173h-2.707v17.827Z" fill="#2f546d"/>
        </g>
        <g id="Group_791" data-name="Group 791">
          <path id="Path_497" data-name="Path 497" d="M395.545,292.412l-.84,4.48h-2.333l4.293-22.4h3.64l4.293,22.4h-2.52l-.84-4.48Zm.28-2.147h4.947l-2.52-12.88Z" fill="#2f546d"/>
        </g>
        <g id="Group_792" data-name="Group 792">
          <path id="Path_498" data-name="Path 498" d="M409.732,296.892V276.826h-4.107v-2.24h10.733v2.24h-4.107v20.067Z" fill="#2f546d"/>
        </g>
        <g id="Group_793" data-name="Group 793">
          <path id="Path_499" data-name="Path 499" d="M420.559,274.492v22.4h-2.427v-22.4Z" fill="#2f546d"/>
        </g>
        <g id="Group_794" data-name="Group 794">
          <path id="Path_500" data-name="Path 500" d="M422.985,279.906c0-3.453,1.68-5.6,5.133-5.6s5.133,2.24,5.133,5.6v11.573c0,3.36-1.68,5.6-5.133,5.6s-5.133-2.24-5.133-5.6Zm2.427,11.76c0,2.053.84,3.267,2.613,3.267,1.867,0,2.613-1.213,2.613-3.267V279.812c0-2.053-.84-3.267-2.613-3.267s-2.613,1.213-2.613,3.267Z" fill="#2f546d"/>
        </g>
        <g id="Group_795" data-name="Group 795">
          <path id="Path_501" data-name="Path 501" d="M437.825,296.892h-2.24v-22.4h3.173l5.227,16.147V274.492h2.24v22.4h-2.613l-5.693-18.107v18.107Z" fill="#2f546d"/>
        </g>
        <g id="Group_796" data-name="Group 796">
          <path id="Path_502" data-name="Path 502" d="M456.118,292.412l-.84,4.48h-2.333l4.293-22.4h3.64l4.293,22.4h-2.52l-.84-4.48Zm.373-2.147h4.947l-2.52-12.88Z" fill="#2f546d"/>
        </g>
        <g id="Group_797" data-name="Group 797">
          <path id="Path_503" data-name="Path 503" d="M469.372,296.892h-2.24v-22.4H470.3l5.227,16.147V274.492h2.24v22.4h-2.707l-5.693-18.107Z" fill="#2f546d"/>
        </g>
        <g id="Group_798" data-name="Group 798">
          <path id="Path_504" data-name="Path 504" d="M485.425,274.492c3.453,0,5.04,2.147,5.04,5.6v11.293c0,3.453-1.587,5.507-5.04,5.507H480.2v-22.4Zm0,20.16c1.773,0,2.613-1.12,2.613-3.173V280c0-2.053-.84-3.173-2.707-3.173h-2.707v17.827Z" fill="#2f546d"/>
        </g>
        <g id="Group_799" data-name="Group 799">
          <path id="Path_505" data-name="Path 505" d="M354.385,304.919l3.64,19.507,3.64-19.507H364l-4.2,22.4h-3.64l-4.2-22.4Z" fill="#2f546d"/>
        </g>
        <g id="Group_800" data-name="Group 800">
          <path id="Path_506" data-name="Path 506" d="M373.892,314.812v2.24h-5.507v7.933h6.72v2.24h-9.24v-22.4h9.24v2.24h-6.72v7.653h5.507Z" fill="#2f546d"/>
        </g>
        <g id="Group_801" data-name="Group 801">
          <path id="Path_507" data-name="Path 507" d="M382.385,304.919c3.547,0,4.947,1.773,4.947,5.133v1.867c0,2.427-.84,4.013-2.8,4.573,2.053.653,2.8,2.24,2.8,4.667v3.453a5.037,5.037,0,0,0,.467,2.707h-2.52a6.125,6.125,0,0,1-.373-2.707v-3.547c0-2.52-1.213-3.36-3.267-3.36h-1.773v9.52h-2.52v-22.4h5.04Zm-.653,10.547c1.96,0,3.173-.653,3.173-3.08v-2.147c0-2.053-.747-3.08-2.613-3.08h-2.427v8.307h1.867Z" fill="#2f546d"/>
        </g>
        <g id="Group_802" data-name="Group 802">
          <path id="Path_508" data-name="Path 508" d="M392.465,304.919v22.4h-2.52v-22.4Z" fill="#2f546d"/>
        </g>
        <g id="Group_803" data-name="Group 803">
          <path id="Path_509" data-name="Path 509" d="M402.732,315.372v2.24H397.6v9.707h-2.52v-22.4h8.867v2.24h-6.44v8.12h5.227Z" fill="#2f546d"/>
        </g>
        <g id="Group_804" data-name="Group 804">
          <path id="Path_510" data-name="Path 510" d="M408.425,304.919v22.4h-2.52v-22.4Z" fill="#2f546d"/>
        </g>
        <g id="Group_805" data-name="Group 805">
          <path id="Path_511" data-name="Path 511" d="M420.839,310.332v2.053h-2.333v-2.147c0-2.053-.84-3.267-2.613-3.267s-2.613,1.213-2.613,3.267V322c0,2.053.84,3.267,2.613,3.267,1.867,0,2.613-1.213,2.613-3.267v-2.893h2.333v2.8c0,3.36-1.587,5.6-5.04,5.6s-5.04-2.24-5.04-5.6V310.332c0-3.36,1.587-5.6,5.04-5.6S420.839,306.972,420.839,310.332Z" fill="#2f546d"/>
        </g>
        <g id="Group_806" data-name="Group 806">
          <path id="Path_512" data-name="Path 512" d="M425.692,322.746l-.84,4.48h-2.333l4.293-22.4h3.64l4.293,22.4h-2.52l-.84-4.48Zm.28-2.053h4.947l-2.52-12.88Z" fill="#2f546d"/>
        </g>
        <g id="Group_807" data-name="Group 807">
          <path id="Path_513" data-name="Path 513" d="M439.878,327.319V307.252h-4.107v-2.24h10.733v2.24H442.4v20.067Z" fill="#2f546d"/>
        </g>
        <g id="Group_808" data-name="Group 808">
          <path id="Path_514" data-name="Path 514" d="M450.705,304.919v22.4h-2.52v-22.4Z" fill="#2f546d"/>
        </g>
        <g id="Group_809" data-name="Group 809">
          <path id="Path_515" data-name="Path 515" d="M453.132,310.332c0-3.453,1.68-5.6,5.133-5.6s5.133,2.24,5.133,5.6v11.573c0,3.36-1.68,5.6-5.133,5.6s-5.133-2.24-5.133-5.6ZM455.558,322c0,2.053.84,3.267,2.613,3.267,1.867,0,2.613-1.213,2.613-3.267V310.146c0-2.053-.84-3.267-2.613-3.267s-2.613,1.213-2.613,3.267Z" fill="#2f546d"/>
        </g>
        <g id="Group_810" data-name="Group 810">
          <path id="Path_516" data-name="Path 516" d="M467.972,327.319h-2.24v-22.4H468.9l5.227,16.147V304.919h2.24v22.4h-2.613l-5.693-18.107v18.107Z" fill="#2f546d"/>
        </g>
      </g>
    </g>
    <g id="Group_832" data-name="Group 832" transform="translate(-9519 -67)">
      <g id="Group_813" data-name="Group 813">
        <path id="Path_517" data-name="Path 517" d="M565.785,405.065c10.173,0,15.4,6.067,15.4,16.707v2.053h-9.893v-2.8c0-4.76-1.867-6.533-5.227-6.533s-5.227,1.773-5.227,6.533c0,13.627,20.44,16.24,20.44,35.187,0,10.64-5.32,16.707-15.587,16.707S550.1,466.852,550.1,456.212v-4.107H560v4.76c0,4.76,2.053,6.44,5.413,6.44s5.413-1.68,5.413-6.44c0-13.627-20.44-16.24-20.44-35.187C550.385,411.132,555.611,405.065,565.785,405.065Z" fill="#2f546d"/>
      </g>
      <g id="Group_814" data-name="Group 814">
        <path id="Path_518" data-name="Path 518" d="M586.318,421.772c0-10.64,5.6-16.707,15.867-16.707s15.867,6.067,15.867,16.707v34.533c0,10.64-5.6,16.707-15.867,16.707s-15.867-6.067-15.867-16.707Zm10.453,35.28c0,4.76,2.053,6.533,5.413,6.533s5.413-1.773,5.413-6.533V421.118c0-4.76-2.053-6.533-5.413-6.533s-5.413,1.773-5.413,6.533Z" fill="#2f546d"/>
      </g>
      <g id="Group_815" data-name="Group 815">
        <path id="Path_519" data-name="Path 519" d="M635.224,435.4h13.44v9.52h-13.44v27.347H624.771V405.812H652.4v9.52H635.224Z" fill="#2f546d"/>
      </g>
      <g id="Group_816" data-name="Group 816">
        <path id="Path_520" data-name="Path 520" d="M654.451,405.812h32.293v9.52h-10.92v56.933H665.371V415.332h-10.92v-9.52Z" fill="#2f546d"/>
      </g>
      <g id="Group_817" data-name="Group 817">
        <path id="Path_521" data-name="Path 521" d="M714.464,436.892l-3.827,35.373H696.264l-7.373-66.453h10.173l5.6,52.453,5.04-52.453h10.08l5.227,52.827,5.413-52.827h9.147L732.2,472.265H718.291Z" fill="#2f546d"/>
      </g>
      <g id="Group_818" data-name="Group 818">
        <path id="Path_522" data-name="Path 522" d="M777.091,472.265H766.544l-1.773-12.04H751.984l-1.773,12.04H740.6l10.64-66.453h15.307Zm-23.8-21h10.08l-5.04-33.6Z" fill="#2f546d"/>
      </g>
      <g id="Group_819" data-name="Group 819">
        <path id="Path_523" data-name="Path 523" d="M803.784,472.265c-.56-1.68-.933-2.8-.933-8.12V453.692c0-6.16-2.053-8.493-6.813-8.493H792.4v27.067H781.944V405.812h15.773c10.827,0,15.493,5.04,15.493,15.307v5.227c0,6.813-2.147,11.293-6.813,13.44,5.227,2.147,6.907,7.187,6.907,14.187v10.267c0,3.267.093,5.6,1.12,8.027ZM792.4,415.332v20.44H796.5c3.92,0,6.253-1.68,6.253-7v-6.533c0-4.76-1.587-6.813-5.32-6.813H792.4Z" fill="#2f546d"/>
      </g>
      <g id="Group_820" data-name="Group 820">
        <path id="Path_524" data-name="Path 524" d="M830.57,433.812h14.373v9.52H830.57v19.507h18.013v9.427H820.117V405.812h28.467v9.52H830.57Z" fill="#2f546d"/>
      </g>
      <g id="Group_821" data-name="Group 821">
        <path id="Path_525" data-name="Path 525" d="M526.4,518h14.373v9.52H526.4v19.413h18.013v9.52H515.945V490h28.467v9.52H526.4Z" fill="#2f546d"/>
      </g>
      <g id="Group_822" data-name="Group 822">
        <path id="Path_526" data-name="Path 526" d="M560.278,508.292v48.16h-9.427V490h13.067l10.733,39.76V490h9.333v66.453H573.251Z" fill="#2f546d"/>
      </g>
      <g id="Group_823" data-name="Group 823">
        <path id="Path_527" data-name="Path 527" d="M607.131,519.4h14.653v21.093c0,10.64-5.32,16.707-15.587,16.707s-15.587-6.067-15.587-16.707V505.958c0-10.64,5.32-16.707,15.587-16.707s15.587,6.067,15.587,16.707v6.44h-9.893V505.3c0-4.76-2.053-6.533-5.413-6.533s-5.413,1.773-5.413,6.533v35.933c0,4.76,2.053,6.44,5.413,6.44s5.413-1.68,5.413-6.44V529.011h-4.76V519.4Z" fill="#2f546d"/>
      </g>
      <g id="Group_824" data-name="Group 824">
        <path id="Path_528" data-name="Path 528" d="M628.5,490h10.453v66.453H628.5Z" fill="#2f546d"/>
      </g>
      <g id="Group_825" data-name="Group 825">
        <path id="Path_529" data-name="Path 529" d="M655.851,508.292v48.16h-9.427V490h13.067l10.733,39.76V490h9.333v66.453H668.824Z" fill="#2f546d"/>
      </g>
      <g id="Group_826" data-name="Group 826">
        <path id="Path_530" data-name="Path 530" d="M697.571,518h14.373v9.52H697.571v19.413h18.013v9.52H687.118V490h28.467v9.52H697.571Z" fill="#2f546d"/>
      </g>
      <g id="Group_827" data-name="Group 827">
        <path id="Path_531" data-name="Path 531" d="M732.477,518h14.373v9.52H732.477v19.413h18.013v9.52H722.024V490h28.467v9.52H732.477Z" fill="#2f546d"/>
      </g>
      <g id="Group_828" data-name="Group 828">
        <path id="Path_532" data-name="Path 532" d="M778.771,556.451c-.56-1.68-.933-2.8-.933-8.12V537.878c0-6.16-2.053-8.493-6.813-8.493h-3.64v27.067H756.931V490H772.7c10.827,0,15.493,5.04,15.493,15.307v5.227c0,6.813-2.147,11.293-6.813,13.44,5.227,2.147,6.907,7.187,6.907,14.187v10.267c0,3.267.093,5.6,1.12,8.027Zm-11.387-57.026v20.44h4.107c3.92,0,6.253-1.68,6.253-7v-6.533c0-4.76-1.587-6.813-5.32-6.813h-5.04Z" fill="#2f546d"/>
      </g>
      <g id="Group_829" data-name="Group 829">
        <path id="Path_533" data-name="Path 533" d="M795.1,490h10.453v66.453H795.1Z" fill="#2f546d"/>
      </g>
      <g id="Group_830" data-name="Group 830">
        <path id="Path_534" data-name="Path 534" d="M822.45,508.292v48.16h-9.427V490H826.09l10.733,39.76V490h9.333v66.453H835.424Z" fill="#2f546d"/>
      </g>
      <g id="Group_831" data-name="Group 831">
        <path id="Path_535" data-name="Path 535" d="M869.4,519.4H884.05v21.093c0,10.64-5.32,16.707-15.587,16.707s-15.587-6.067-15.587-16.707V505.958c0-10.64,5.32-16.707,15.587-16.707s15.587,6.067,15.587,16.707v6.44h-9.893V505.3c0-4.76-2.053-6.533-5.413-6.533s-5.413,1.773-5.413,6.533v35.933c0,4.76,2.053,6.44,5.413,6.44s5.413-1.68,5.413-6.44V529.011H869.4V519.4Z" fill="#2f546d"/>
      </g>
    </g>
    <g id="Group_833" data-name="Group 833" transform="translate(-9519 -67)">
      <path id="Path_536" data-name="Path 536" d="M711.384,273.092A11.387,11.387,0,1,1,700,261.706a11.387,11.387,0,0,1,11.387,11.387Z" fill="#a8cde2"/>
    </g>
    <g id="Group_834" data-name="Group 834" transform="translate(-9519 -67)">
      <path id="Path_537" data-name="Path 537" d="M425.6,348.879a11.387,11.387,0,1,1-11.387-11.387A11.387,11.387,0,0,1,425.6,348.879Z" fill="#a8cde2"/>
    </g>
    <g id="Group_835" data-name="Group 835" transform="translate(-9519 -67)">
      <path id="Path_538" data-name="Path 538" d="M1006.6,318.266a11.387,11.387,0,1,1-11.387-11.387A11.387,11.387,0,0,1,1006.6,318.266Z" fill="#a8cde2"/>
    </g>
    <g id="Group_836" data-name="Group 836" transform="translate(-9519 -67)">
      <path id="Path_539" data-name="Path 539" d="M1206.329,567.278a11.387,11.387,0,1,1-11.386-11.387A11.387,11.387,0,0,1,1206.329,567.278Z" fill="#a8cde2"/>
    </g>
    <g id="Group_837" data-name="Group 837" transform="translate(-9519 -67)">
      <path id="Path_540" data-name="Path 540" d="M1024.7,814.517a11.387,11.387,0,1,1-11.387-11.387,11.387,11.387,0,0,1,11.387,11.387Z" fill="#a8cde2"/>
    </g>
    <g id="Group_838" data-name="Group 838" transform="translate(-9519 -67)">
      <path id="Path_541" data-name="Path 541" d="M711.384,853.25A11.387,11.387,0,1,1,700,841.864,11.387,11.387,0,0,1,711.384,853.25Z" fill="#a8cde2"/>
    </g>
    <g id="Group_839" data-name="Group 839" transform="translate(-9519 -67)">
      <path id="Path_542" data-name="Path 542" d="M406,815.917a11.387,11.387,0,1,1-11.387-11.387A11.387,11.387,0,0,1,406,815.917Z" fill="#a8cde2"/>
    </g>
    <g id="Group_841" data-name="Group 841" transform="translate(-9519 -67)">
      <path id="Path_544" data-name="Path 544" d="M700,381.265a2.908,2.908,0,0,1-2.893-2.893V273.092a2.893,2.893,0,1,1,5.787,0v105.28A2.908,2.908,0,0,1,700,381.265Z" fill="#a8cde2"/>
    </g>
    <g id="Group_842" data-name="Group 842" transform="translate(-9519 -67)">
      <path id="Path_545" data-name="Path 545" d="M516.038,428.492H414.212a2.908,2.908,0,0,1-2.893-2.893V348.972a2.893,2.893,0,0,1,5.787,0v73.733h98.933a2.893,2.893,0,0,1,0,5.787Z" fill="#a8cde2"/>
    </g>
    <g id="Group_843" data-name="Group 843" transform="translate(-9519 -67)">
      <path id="Path_546" data-name="Path 546" d="M480.2,580.438H205.053a2.893,2.893,0,1,1,0-5.787H480.2a2.893,2.893,0,1,1,0,5.787Z" fill="#a8cde2"/>
    </g>
    <g id="Group_844" data-name="Group 844" transform="translate(-9519 -67)">
      <path id="Path_547" data-name="Path 547" d="M557.011,818.81h-162.4a2.893,2.893,0,0,1,0-5.787H554.118V588.838a2.893,2.893,0,0,1,5.787,0V815.917A2.908,2.908,0,0,1,557.011,818.81Z" fill="#a8cde2"/>
    </g>
    <g id="Group_845" data-name="Group 845" transform="translate(-9519 -67)">
      <path id="Path_548" data-name="Path 548" d="M792.4,856.144H700a2.893,2.893,0,0,1,0-5.787H789.5V588.838a2.893,2.893,0,0,1,5.787,0V853.25A2.908,2.908,0,0,1,792.4,856.144Z" fill="#a8cde2"/>
    </g>
    <g id="Group_846" data-name="Group 846" transform="translate(-9519 -67)">
      <path id="Path_549" data-name="Path 549" d="M1013.316,817.41H846.25a2.908,2.908,0,0,1-2.893-2.893V588.838a2.893,2.893,0,0,1,5.787,0V811.624h164.173a2.893,2.893,0,0,1,0,5.787Z" fill="#a8cde2"/>
    </g>
    <g id="Group_847" data-name="Group 847" transform="translate(-9519 -67)">
      <path id="Path_550" data-name="Path 550" d="M1194.943,570.171H917.277a2.893,2.893,0,0,1,0-5.787h277.666a2.893,2.893,0,0,1,0,5.787Z" fill="#a8cde2"/>
    </g>
    <g id="Group_848" data-name="Group 848" transform="translate(-9519 -67)">
      <path id="Path_551" data-name="Path 551" d="M995.21,435.585H880.224a2.893,2.893,0,0,1,0-5.787H992.316V318.266a2.893,2.893,0,1,1,5.787,0V432.692A2.908,2.908,0,0,1,995.21,435.585Z" fill="#a8cde2"/>
    </g>
  </g>
</svg>
